<?xml version="1.0" standalone="no"?>
<!DOCTYPE svg PUBLIC "-//W3C//DTD SVG 20010904//EN"
 "http://www.w3.org/TR/2001/REC-SVG-20010904/DTD/svg10.dtd">
<svg version="1.0" xmlns="http://www.w3.org/2000/svg"
 width="703.000000pt" height="598.000000pt" viewBox="0 0 703.000000 598.000000"
 preserveAspectRatio="xMidYMid meet">

<g transform="translate(0.000000,598.000000) scale(0.100000,-0.100000)"
fill="#000000" stroke="none">
<path d="M1740 4131 l0 -861 353 0 c203 0 379 4 413 11 183 32 358 129 489
271 201 217 273 505 199 793 -77 295 -317 534 -619 616 -74 20 -110 22 -457
27 l-378 4 0 -861z"/>
<path d="M3410 4667 c0 -2 15 -37 34 -78 109 -238 126 -544 45 -809 -52 -171
-183 -376 -325 -509 l-76 -71 609 0 c584 0 611 -1 683 -21 176 -48 330 -175
413 -341 37 -76 67 -178 67 -237 0 -24 4 -32 14 -28 34 13 705 401 735 425 19
15 48 52 65 82 54 97 36 228 -42 307 -18 17 -510 305 -1095 638 -584 334
-1077 616 -1094 627 -18 11 -33 18 -33 15z"/>
<path d="M1440 2540 l0 -410 1331 0 1331 0 240 137 c131 75 244 145 250 157 6
11 13 50 16 87 12 172 -79 328 -236 402 l-67 32 -1432 3 -1433 2 0 -410z"/>
</g>
</svg>
