<svg xmlns="http://www.w3.org/2000/svg" viewBox="0 0 400 300">
  <defs>
    <linearGradient id="gpuGrad" x1="0%" y1="0%" x2="100%" y2="100%">
      <stop offset="0%" style="stop-color:#6366f1;stop-opacity:1" />
      <stop offset="100%" style="stop-color:#06b6d4;stop-opacity:1" />
    </linearGradient>
  </defs>
  <rect x="50" y="80" width="300" height="140" rx="10" fill="#1f2937" stroke="url(#gpuGrad)" stroke-width="3"/>
  <rect x="120" y="110" width="80" height="80" rx="5" fill="url(#gpuGrad)" opacity="0.8"/>
  <rect x="130" y="120" width="60" height="60" rx="3" fill="#1f2937"/>
  <text x="160" y="158" font-family="monospace" font-size="16" fill="#06b6d4" text-anchor="middle">GPU</text>
  <rect x="220" y="115" width="30" height="20" rx="2" fill="#374151"/>
  <rect x="260" y="115" width="30" height="20" rx="2" fill="#374151"/>
  <rect x="300" y="115" width="30" height="20" rx="2" fill="#374151"/>
  <rect x="220" y="165" width="30" height="20" rx="2" fill="#374151"/>
  <rect x="260" y="165" width="30" height="20" rx="2" fill="#374151"/>
  <rect x="300" y="165" width="30" height="20" rx="2" fill="#374151"/>
  <rect x="70" y="195" width="260" height="15" rx="2" fill="#eab308" opacity="0.8"/>
  <circle cx="60" cy="260" r="8" fill="#6366f1"/>
  <circle cx="100" cy="260" r="8" fill="#06b6d4"/>
  <circle cx="140" cy="260" r="8" fill="#6366f1"/>
  <line x1="68" y1="260" x2="92" y2="260" stroke="#8b5cf6" stroke-width="2"/>
  <line x1="108" y1="260" x2="132" y2="260" stroke="#8b5cf6" stroke-width="2"/>
</svg>
