<?xml version="1.0" encoding="UTF-8"?>
<svg version="1.1" xmlns="http://www.w3.org/2000/svg"
 width="703" height="598" viewBox="0 0 703 598"
 preserveAspectRatio="xMidYMid meet">

<defs>
  <linearGradient id="gradient1" x1="0%" y1="0%" x2="100%" y2="100%">
    <stop offset="0%" style="stop-color:#60A5FA;stop-opacity:1" />
    <stop offset="100%" style="stop-color:#3B82F6;stop-opacity:1" />
  </linearGradient>
  <linearGradient id="gradient2" x1="0%" y1="0%" x2="100%" y2="100%">
    <stop offset="0%" style="stop-color:#93C5FD;stop-opacity:1" />
    <stop offset="100%" style="stop-color:#60A5FA;stop-opacity:1" />
  </linearGradient>
  <linearGradient id="gradient3" x1="0%" y1="0%" x2="100%" y2="100%">
    <stop offset="0%" style="stop-color:#DBEAFE;stop-opacity:1" />
    <stop offset="100%" style="stop-color:#93C5FD;stop-opacity:1" />
  </linearGradient>
</defs>

<g transform="translate(0,598) scale(0.1,-0.1)">
<path d="M1740 4131 l0 -861 353 0 c203 0 379 4 413 11 183 32 358 129 489
271 201 217 273 505 199 793 -77 295 -317 534 -619 616 -74 20 -110 22 -457
27 l-378 4 0 -861z" fill="url(#gradient1)"/>
<path d="M3410 4667 c0 -2 15 -37 34 -78 109 -238 126 -544 45 -809 -52 -171
-183 -376 -325 -509 l-76 -71 609 0 c584 0 611 -1 683 -21 176 -48 330 -175
413 -341 37 -76 67 -178 67 -237 0 -24 4 -32 14 -28 34 13 705 401 735 425 19
15 48 52 65 82 54 97 36 228 -42 307 -18 17 -510 305 -1095 638 -584 334
-1077 616 -1094 627 -18 11 -33 18 -33 15z" fill="url(#gradient2)"/>
<path d="M1440 2540 l0 -410 1331 0 1331 0 240 137 c131 75 244 145 250 157 6
11 13 50 16 87 12 172 -79 328 -236 402 l-67 32 -1432 3 -1433 2 0 -410z" fill="url(#gradient3)"/>
</g>
</svg>
